<?xml version="1.0" encoding="UTF-8"?>
<svg width="14px" height="20px" viewBox="0 0 14 20" version="1.1" xmlns="http://www.w3.org/2000/svg" xmlns:xlink="http://www.w3.org/1999/xlink">
    <!-- Generator: Sketch 41.2 (35397) - http://www.bohemiancoding.com/sketch -->
    <title>Group 15</title>
    <desc>Created with Sketch.</desc>
    <defs></defs>
    <g id="Page-1" stroke="none" stroke-width="1" fill="none" fill-rule="evenodd">
        <g id="首页" transform="translate(-149.000000, -2084.000000)">
            <g id="footer" transform="translate(138.000000, 1871.000000)">
                <g id="企业信息" transform="translate(6.000000, 38.000000)">
                    <g id="地址" transform="translate(0.000000, 173.000000)">
                        <g id="Group-15">
                            <polygon id="Shape" points="0 0 24 0 24 24 0 24"></polygon>
                            <path d="M12,2 C8.13,2 5,5.13 5,9 C5,14.25 12,22 12,22 C12,22 19,14.25 19,9 C19,5.13 15.87,2 12,2 L12,2 Z M12,11.5 C10.62,11.5 9.5,10.38 9.5,9 C9.5,7.62 10.62,6.5 12,6.5 C13.38,6.5 14.5,7.62 14.5,9 C14.5,10.38 13.38,11.5 12,11.5 L12,11.5 Z" id="Shape" fill="#3C4650"></path>
                        </g>
                    </g>
                </g>
            </g>
        </g>
    </g>
</svg>